<?xml version="1.0" encoding="UTF-8" standalone="no"?>
<svg
   version="1.1"
   width="281.08173"
   height="458.11374"
   style="clip-rule:evenodd;fill-rule:evenodd;image-rendering:optimizeQuality;shape-rendering:geometricPrecision;text-rendering:geometricPrecision"
   id="svg472"
   xmlns="http://www.w3.org/2000/svg"
   xmlns:svg="http://www.w3.org/2000/svg">
  <defs
     id="defs476" />
  <g
     id="g386"
     transform="translate(-22.418526,-2.4999976)">
    <path
       style="opacity:1"
       fill="#9c14af"
       d="m 141.5,184.5 c -3.281,-0.08 -6.281,0.587 -9,2 -8.1,1.755 -15.767,4.588 -23,8.5 -4.497,3.978 -7.497,8.811 -9,14.5 -1.2165,5.066 -0.8832,10.066 1,15 1.157,2.773 1.824,5.773 2,9 -0.09,2.652 0.576,4.985 2,7 0.934,1.068 1.268,2.401 1,4 0,1 0,2 0,3 -2.333,0 -4.667,0 -7,0 -5.8579,-0.641 -11.5246,-1.641 -17,-3 -3.6998,-1.781 -7.6998,-2.781 -12,-3 -27.3549,-7.352 -43.0216,-25.019 -47,-53 -0.9189,-39.991 -1.2522,-79.991 -1,-120 2.0339,-37.8613 21.7005,-59.69462 59,-65.5 54,-0.66667 108,-0.66667 162,0 38.62,6.29867 58.453,29.132 59.5,68.5 0.999,20.0593 0.332,40.059 -2,60 -5.894,26.226 -21.728,43.06 -47.5,50.5 -37.319,1.181 -74.652,2.014 -112,2.5 z"
       id="path384" />
  </g>
  <g
     id="g390"
     transform="translate(-22.418526,-2.4999976)">
    <path
       style="opacity:1;fill:#f8f5f8;fill-opacity:1"
       fill="#f8f5f8"
       d="m 89.5,75.5 c 21.558,-0.2962 29.058,9.7038 22.5,30 -9.655,11.082 -19.9883,11.748 -31,2 -5.31,-10.1176 -4.4767,-19.6176 2.5,-28.5 2.2274,-0.941 4.2274,-2.1077 6,-3.5 z"
       id="path388" />
  </g>
  <g
     id="g394"
     transform="translate(-22.418526,-2.4999976)">
    <path
       style="opacity:1"
       fill="#f8f5f8"
       d="m 225.5,75.5 c 15.553,-0.2347 23.053,7.432 22.5,23 -3.857,13.846 -12.69,18.68 -26.5,14.5 -10.717,-7.151 -13.55,-16.6508 -8.5,-28.5 3.299,-4.3821 7.466,-7.3821 12.5,-9 z"
       id="path392" />
  </g>
  <g
     id="g398"
     style="opacity:1"
     transform="translate(-22.418526,-2.4999976)">
    <path
       style="opacity:1"
       fill="#f9f7f9"
       d="m 168.5,113.5 c -4.034,-0.005 -8.034,-0.338 -12,-1 -4.59,-1.421 -7.756,-4.421 -9.5,-9 -5.499,-15.6796 -0.165,-25.0129 16,-28 14.896,1.229 21.23,9.229 19,24 -2.02,7.184 -6.52,11.851 -13.5,14 z"
       id="path396" />
  </g>
  <g
     id="g422"
     transform="translate(-22.418526,-2.4999976)">
    <path
       style="opacity:1"
       fill="#9c14af"
       d="m 234.5,217.5 c 3.561,0.73 7.227,1.397 11,2 4.478,1.623 9.145,2.956 14,4 29.983,9.586 44.483,30.252 43.5,62 0.667,32.333 0.667,64.667 0,97 2.202,25.079 -5.632,46.246 -23.5,63.5 -8.664,6.665 -18.331,11.165 -29,13.5 -57.981,0.98 -115.981,1.313 -174,1 -34.1587,-9.019 -51.9921,-31.352 -53.5,-67 -1.0768,-21.73 -0.4101,-43.396 2,-65 4.8419,-21.332 17.3419,-35.998 37.5,-44 2.6522,0.09 4.9855,-0.576 7,-2 6.9334,-0.079 13.6001,-1.079 20,-3 29.008,0.333 58.008,0 87,-1 9.393,-1.512 18.726,-3.345 28,-5.5 8.353,-2.916 14.853,-8.082 19.5,-15.5 0.667,-3.667 0.667,-7.333 0,-11 -1.604,-8.954 -2.771,-17.954 -3.5,-27 4.215,-1.936 8.881,-2.603 14,-2 z"
       id="path420" />
  </g>
  <g
     id="g454"
     transform="translate(-22.418526,-2.4999976)">
    <path
       style="opacity:1"
       fill="#f9f7f9"
       d="m 100.5,350.5 c 6.026,1.175 10.359,4.508 13,10 0,5 0,10 0,15 -5.351,9.169 -13.351,12.669 -24,10.5 -8.3879,-3.418 -12.3879,-9.751 -12,-19 -0.1347,-6.918 2.8653,-11.751 9,-14.5 4.5068,-1.613 9.1734,-2.279 14,-2 z"
       id="path452" />
  </g>
  <g
     id="g458"
     transform="translate(-22.418526,-2.4999976)">
    <path
       style="opacity:1"
       fill="#f8f6f8"
       d="m 156.5,349.5 c 10.141,-1.512 17.641,2.155 22.5,11 3.475,18.191 -4.025,26.691 -22.5,25.5 -8.564,-1.628 -13.064,-6.795 -13.5,-15.5 -0.667,-3 -0.667,-6 0,-9 3.454,-5.294 7.954,-9.294 13.5,-12 z"
       id="path456" />
  </g>
  <g
     id="g462"
     transform="translate(-22.418526,-2.4999976)">
    <path
       style="opacity:1"
       fill="#f8f5f8"
       d="m 225.5,349.5 c 11.288,-1.182 18.788,3.485 22.5,14 0.482,18.512 -8.352,25.678 -26.5,21.5 -11.31,-6.394 -14.143,-15.561 -8.5,-27.5 3.378,-4.094 7.545,-6.761 12.5,-8 z"
       id="path460" />
  </g>
</svg>
